<?xml version="1.0" encoding="utf-8"?>
<!-- Generator: Adobe Illustrator 16.0.3, SVG Export Plug-In . SVG Version: 6.00 Build 0)  -->
<!DOCTYPE svg PUBLIC "-//W3C//DTD SVG 1.1//EN" "http://www.w3.org/Graphics/SVG/1.1/DTD/svg11.dtd">
<svg version="1.1" id="Layer_1" xmlns="http://www.w3.org/2000/svg" xmlns:xlink="http://www.w3.org/1999/xlink" x="0px" y="0px"
	 width="260px" height="60px" viewBox="0 0 260 60" enable-background="new 0 0 260 60" xml:space="preserve">
<path fill-rule="evenodd" clip-rule="evenodd" fill="#FECD0F" d="M19.672,37.1c-2.741,0-5.338-0.623-7.652-1.736
	c1.291,0.333,2.638,0.529,4.034,0.529c8.853,0,16.055-7.129,16.055-15.894c0-8.763-7.202-15.893-16.055-15.893
	c-2.404,0-4.678,0.541-6.729,1.482c2.906-2.099,6.482-3.342,10.347-3.342c9.707,0,17.605,7.817,17.605,17.428
	C37.277,29.283,29.379,37.1,19.672,37.1L19.672,37.1z M12.216,31.987c-1.554,0-3.036-0.302-4.405-0.828
	c2.316,1.681,5.159,2.685,8.242,2.685c7.71,0,13.985-6.21,13.985-13.844c0-7.634-6.275-13.845-13.985-13.845
	c-2.795,0-5.395,0.825-7.582,2.229c1.182-0.379,2.438-0.587,3.745-0.587c6.737,0,12.216,5.426,12.216,12.095
	C24.433,26.559,18.954,31.987,12.216,31.987L12.216,31.987z M5.438,27.346c1.799,1.603,4.171,2.59,6.778,2.59
	c5.595,0,10.147-4.507,10.147-10.045c0-5.54-4.553-10.045-10.147-10.045c-3.079,0-5.837,1.369-7.699,3.521
	c1.24-0.774,2.702-1.227,4.273-1.227c4.438,0,8.049,3.574,8.049,7.968c0,4.397-3.611,7.97-8.049,7.97
	C7.592,28.077,6.459,27.81,5.438,27.346L5.438,27.346z M19.672,0C8.825,0,0,8.825,0,19.674c0,0.047,0.003,0.098,0.003,0.146
	C0.003,19.845,0,19.869,0,19.893c0,0.02,0.003,0.037,0.003,0.053c0,0.02-0.003,0.037-0.003,0.057c0,0.111,0.013,0.218,0.015,0.33
	c0.009,0.235,0.021,0.468,0.036,0.698c0.026,0.384,0.062,0.765,0.112,1.14c0.043,0.33,0.092,0.657,0.15,0.982
	c0.007,0.036,0.012,0.072,0.019,0.109c1.693,9.141,9.717,16.085,19.34,16.085c10.849,0,19.673-8.825,19.673-19.672
	C39.346,8.825,30.521,0,19.672,0z"/>
<g>
	<path fill-rule="evenodd" clip-rule="evenodd" d="M66.434,9.901v3.977h-1.7V24.01c0,5.742-3.624,8.019-8.788,8.019
		c-5.162,0-8.786-2.276-8.786-8.019V13.878h-1.732V9.901h8.563v3.977h-1.732V24.01c0,2.278,0.834,4.04,3.719,4.04
		c2.791,0,3.658-1.762,3.658-4.04V13.878h-1.732V9.901H66.434z"/>
	<path fill-rule="evenodd" clip-rule="evenodd" d="M79.613,9.901l5.517,17.83h1.73v3.977h-9.074V27.73h1.795l-0.706-2.629h-5.869
		l-0.833,2.629h1.859v3.977h-8.82V27.73h2.022l4.392-13.854h-2.084V9.901H79.613L79.613,9.901z M76.086,14.421l-2.053,6.991h3.978
		l-1.892-6.991H76.086z"/>
	<polygon fill-rule="evenodd" clip-rule="evenodd" points="87.664,9.259 94.206,9.259 94.206,27.731 95.937,27.731 95.937,31.708 
		87.664,31.708 87.664,27.731 89.395,27.731 89.395,13.236 87.664,13.236 	"/>
	<path fill-rule="evenodd" clip-rule="evenodd" d="M98.535,31.098c-2.052-1.378-1.7-4.201,1.314-5.74v-0.063
		c-1.604-0.802-2.597-2.533-2.597-4.491c0-3.751,2.79-5.451,6.926-5.451c0.834,0,1.731,0.128,2.374,0.319h6.093v2.855h-2.31v0.063
		c0.417,0.514,0.61,1.22,0.61,2.213c0,3.786-2.854,5.42-6.767,5.42c-0.513,0-1.25-0.095-1.892-0.288
		c-0.673,0.994-0.642,1.794,0.385,1.858l5.131,0.226c3.239,0.127,5.164,1.732,5.164,4.458c0,4.134-3.111,5.963-9.749,5.963
		c-4.939,0-7.055-1.347-7.055-4.169c0-1.378,0.705-2.309,2.373-3.11V31.098L98.535,31.098z M103.955,35.171
		c1.924,0,3.943-0.416,3.943-1.764c0-0.673-0.545-1.186-1.635-1.283l-5.291-0.321c-0.385,0.481-0.706,0.771-0.706,1.636
		C100.267,35.045,102.19,35.171,103.955,35.171L103.955,35.171z M106.393,20.804c0-1.635-0.963-2.18-2.214-2.18
		c-1.313,0-2.245,0.545-2.245,2.18c0,1.635,0.962,2.15,2.245,2.15C105.429,22.954,106.393,22.407,106.393,20.804z"/>
</g>
<g>
	<path d="M50.49,54.049h-2.573v1.715h2.222v0.663h-2.222v2.261h-0.741v-5.302h3.314V54.049z"/>
	<path d="M53.657,57.347h-2.027l-0.452,1.341h-0.78l1.825-5.341h0.912l1.786,5.341h-0.827L53.657,57.347z M52.651,54.275
		l-0.866,2.448H53.5l-0.834-2.448H52.651z"/>
	<path d="M57.463,53.308c0.601,0,1.17,0.078,1.833,0.272l-0.171,0.624c-0.803-0.195-1.178-0.234-1.606-0.234
		c-1.224,0-1.536,0.896-1.536,2.027c0,1.208,0.312,2.105,1.536,2.105c0.429,0,0.803-0.039,1.606-0.234l0.171,0.624
		c-0.663,0.195-1.232,0.273-1.833,0.273c-1.816,0-2.261-1.248-2.261-2.768C55.202,54.517,55.647,53.308,57.463,53.308z"/>
	<path d="M63.352,56.817v-3.431h0.741v3.431c0,1.364-0.725,1.949-1.988,1.949c-1.271,0-1.988-0.585-1.988-1.949v-3.431h0.741v3.431
		c0,0.584,0.117,1.325,1.263,1.325C63.212,58.142,63.352,57.401,63.352,56.817z"/>
	<path d="M65.849,53.386v4.64h2.612v0.663h-3.353v-5.302H65.849z"/>
	<path d="M69.32,58.688v-5.302h1.887c1.739,0,2.246,1.131,2.246,2.612c0,1.505-0.507,2.69-2.246,2.69H69.32z M71.207,58.025
		c1.193,0,1.466-0.897,1.466-2.027c0-1.131-0.273-1.949-1.466-1.949h-1.146v3.977H71.207z"/>
	<path d="M76.995,57.347h-2.027l-0.452,1.341h-0.78l1.825-5.341h0.912l1.786,5.341h-0.827L76.995,57.347z M75.989,54.275
		l-0.866,2.448h1.715l-0.834-2.448H75.989z"/>
	<path d="M78.914,58.688v-5.302h1.887c1.739,0,2.246,1.131,2.246,2.612c0,1.505-0.507,2.69-2.246,2.69H78.914z M80.801,58.025
		c1.193,0,1.466-0.897,1.466-2.027c0-1.131-0.273-1.949-1.466-1.949h-1.146v3.977H80.801z"/>
	<path d="M87.282,54.049h-2.651v1.559h2.3v0.663h-2.3v1.754h2.69v0.663h-3.431v-5.302h3.392V54.049z"/>
	<path d="M89.663,58.688v-5.302h1.887c1.739,0,2.246,1.131,2.246,2.612c0,1.505-0.507,2.69-2.246,2.69H89.663z M91.549,58.025
		c1.193,0,1.466-0.897,1.466-2.027c0-1.131-0.273-1.949-1.466-1.949h-1.146v3.977H91.549z"/>
	<path d="M98.03,54.049h-2.651v1.559h2.3v0.663h-2.3v1.754h2.69v0.663h-3.431v-5.302h3.392V54.049z"/>
	<path d="M103.038,57.456h0.016l1.606-4.07h0.975v5.302h-0.741V54.75h-0.016l-1.606,3.938h-0.545l-1.583-3.938h-0.016v3.938h-0.717
		v-5.302h0.975L103.038,57.456z"/>
	<path d="M110.042,54.049h-2.651v1.559h2.3v0.663h-2.3v1.754h2.69v0.663h-3.431v-5.302h3.392V54.049z"/>
	<path d="M111.019,58.688v-5.302h1.887c1.739,0,2.246,1.131,2.246,2.612c0,1.505-0.507,2.69-2.246,2.69H111.019z M112.905,58.025
		c1.193,0,1.466-0.897,1.466-2.027c0-1.131-0.273-1.949-1.466-1.949h-1.146v3.977H112.905z"/>
	<path d="M115.995,58.688v-5.302h0.741v5.302H115.995z"/>
	<path d="M119.839,53.308c0.601,0,1.17,0.078,1.833,0.272l-0.171,0.624c-0.803-0.195-1.178-0.234-1.606-0.234
		c-1.224,0-1.536,0.896-1.536,2.027c0,1.208,0.312,2.105,1.536,2.105c0.429,0,0.803-0.039,1.606-0.234l0.171,0.624
		c-0.663,0.195-1.232,0.273-1.833,0.273c-1.816,0-2.261-1.248-2.261-2.768C117.578,54.517,118.023,53.308,119.839,53.308z"/>
	<path d="M122.336,58.688v-5.302h0.741v5.302H122.336z"/>
	<path d="M124.091,58.688v-5.302h0.741l2.573,3.938h0.016v-3.938h0.725v5.302h-0.741l-2.581-3.852h-0.016v3.852H124.091z"/>
	<path d="M132.062,57.347h-2.027l-0.452,1.341h-0.78l1.825-5.341h0.912l1.786,5.341h-0.827L132.062,57.347z M131.056,54.275
		l-0.866,2.448h1.715l-0.834-2.448H131.056z"/>
	<path d="M138.901,54.049h-2.651v1.559h2.3v0.663h-2.3v1.754h2.69v0.663h-3.431v-5.302h3.392V54.049z"/>
	<path d="M143.465,53.308c0.601,0,1.17,0.078,1.833,0.272l-0.171,0.624c-0.803-0.195-1.178-0.234-1.606-0.234
		c-1.224,0-1.536,0.896-1.536,2.027c0,1.208,0.312,2.105,1.536,2.105c0.429,0,0.803-0.039,1.606-0.234l0.171,0.624
		c-0.663,0.195-1.232,0.273-1.833,0.273c-1.817,0-2.261-1.248-2.261-2.768C141.204,54.517,141.648,53.308,143.465,53.308z"/>
	<path d="M145.962,58.688v-5.302h0.741v5.302H145.962z"/>
	<path d="M151.108,54.049h-2.651v1.559h2.3v0.663h-2.3v1.754h2.69v0.663h-3.431v-5.302h3.392V54.049z M148.801,52.996h-0.39
		l0.834-0.936h0.429l0.842,0.936h-0.39l-0.663-0.624L148.801,52.996z"/>
	<path d="M152.085,58.688v-5.302h0.741l2.573,3.938h0.016v-3.938h0.725v5.302h-0.741l-2.581-3.852h-0.016v3.852H152.085z"/>
	<path d="M159.244,53.308c0.601,0,1.17,0.078,1.833,0.272l-0.171,0.624c-0.803-0.195-1.178-0.234-1.606-0.234
		c-1.224,0-1.536,0.896-1.536,2.027c0,1.208,0.312,2.105,1.536,2.105c0.429,0,0.803-0.039,1.606-0.234l0.171,0.624
		c-0.663,0.195-1.232,0.273-1.833,0.273c-1.817,0-2.261-1.248-2.261-2.768C156.983,54.517,157.427,53.308,159.244,53.308z"/>
	<path d="M161.741,58.688v-5.302h0.741v5.302H161.741z"/>
	<path d="M166.397,57.347h-2.027l-0.452,1.341h-0.78l1.825-5.341h0.912l1.786,5.341h-0.827L166.397,57.347z M165.391,54.275
		l-0.866,2.448h1.715l-0.834-2.448H165.391z"/>
	<path d="M168.051,58.493l0.125-0.624c0.811,0.195,1.356,0.234,1.786,0.234c0.78,0,1.13-0.405,1.13-0.834
		c0-0.647-0.756-0.803-1.326-0.959c-0.865-0.227-1.637-0.702-1.637-1.599c0-1.006,0.819-1.403,1.833-1.403
		c0.584,0,1.13,0.078,1.793,0.272l-0.171,0.624c-0.803-0.195-1.193-0.234-1.622-0.234c-0.78,0-1.053,0.351-1.053,0.764
		c0,0.6,0.772,0.811,1.364,0.951c0.858,0.195,1.599,0.608,1.599,1.521c0,1.053-0.819,1.56-1.91,1.56
		C169.377,58.766,168.714,58.688,168.051,58.493z"/>
	<path d="M177.09,55.975c0.647,0.148,1.021,0.624,1.021,1.294c0,0.873-0.545,1.419-1.598,1.419h-2.3v-5.302h2.144
		c1.053,0,1.599,0.53,1.599,1.349c0,0.6-0.32,1.053-0.866,1.224V55.975z M176.279,54.049h-1.326v1.598h1.326
		c0.584,0,0.896-0.25,0.896-0.795C177.176,54.345,176.864,54.049,176.279,54.049z M174.954,56.31v1.715h1.442
		c0.585,0,0.936-0.25,0.936-0.858c0-0.562-0.351-0.857-1.013-0.857H174.954z"/>
	<path d="M178.971,58.688v-5.302h0.741v5.302H178.971z"/>
	<path d="M180.554,55.998c0-1.481,0.445-2.69,2.261-2.69c1.809,0,2.261,1.208,2.261,2.69c0,1.505-0.452,2.768-2.261,2.768
		C180.999,58.766,180.554,57.503,180.554,55.998z M181.333,55.998c0,1.13,0.21,2.144,1.481,2.144c1.263,0,1.481-1.014,1.481-2.144
		c0-1.131-0.218-2.066-1.481-2.066C181.544,53.932,181.333,54.867,181.333,55.998z"/>
	<path d="M188.548,57.456h0.016l1.606-4.07h0.975v5.302h-0.741V54.75h-0.016l-1.606,3.938h-0.545l-1.583-3.938h-0.016v3.938h-0.717
		v-5.302h0.975L188.548,57.456z"/>
	<path d="M195.552,54.049h-2.651v1.559h2.3v0.663h-2.3v1.754h2.69v0.663h-3.431v-5.302h3.392V54.049z M193.954,53.066h-0.39
		l0.468-0.936h0.585L193.954,53.066z"/>
	<path d="M196.528,58.688v-5.302h1.887c1.739,0,2.246,1.131,2.246,2.612c0,1.505-0.507,2.69-2.246,2.69H196.528z M198.415,58.025
		c1.193,0,1.466-0.897,1.466-2.027c0-1.131-0.273-1.949-1.466-1.949h-1.146v3.977H198.415z"/>
	<path d="M201.504,58.688v-5.302h0.741v5.302H201.504z"/>
	<path d="M205.349,53.308c0.601,0,1.17,0.078,1.833,0.272l-0.171,0.624c-0.803-0.195-1.178-0.234-1.606-0.234
		c-1.224,0-1.536,0.896-1.536,2.027c0,1.208,0.312,2.105,1.536,2.105c0.429,0,0.803-0.039,1.606-0.234l0.171,0.624
		c-0.663,0.195-1.232,0.273-1.833,0.273c-1.816,0-2.261-1.248-2.261-2.768C203.088,54.517,203.533,53.308,205.349,53.308z"/>
	<path d="M210.871,57.347h-2.027l-0.452,1.341h-0.78l1.825-5.341h0.912l1.786,5.341h-0.827L210.871,57.347z M209.865,54.275
		L209,56.723h1.715l-0.834-2.448H209.865z"/>
	<path d="M212.525,58.493l0.125-0.624c0.811,0.195,1.356,0.234,1.786,0.234c0.779,0,1.13-0.405,1.13-0.834
		c0-0.647-0.756-0.803-1.326-0.959c-0.865-0.227-1.637-0.702-1.637-1.599c0-1.006,0.819-1.403,1.833-1.403
		c0.584,0,1.13,0.078,1.793,0.272l-0.171,0.624c-0.803-0.195-1.193-0.234-1.622-0.234c-0.78,0-1.053,0.351-1.053,0.764
		c0,0.6,0.772,0.811,1.364,0.951c0.858,0.195,1.599,0.608,1.599,1.521c0,1.053-0.819,1.56-1.91,1.56
		C213.851,58.766,213.188,58.688,212.525,58.493z"/>
</g>
<g>
	<path d="M52.749,42.483v0.724h-0.628v3.526c0,1.69-0.898,2.415-2.463,2.415c-1.575,0-2.463-0.725-2.463-2.415v-3.526h-0.627v-0.724
		h2.173v0.724h-0.627v3.526c0,0.724,0.145,1.69,1.564,1.69c1.353,0,1.526-0.966,1.526-1.69v-3.526h-0.628v-0.724H52.749z"/>
	<path d="M59.411,42.483v0.724h-0.627v5.844h-0.947l-3.216-4.897h-0.02v4.172h0.657v0.725h-2.125v-0.725h0.627v-5.119h-0.627v-0.724
		h1.516l3.265,5.022h0.02v-4.298h-0.647v-0.724H59.411z"/>
	<path d="M60.424,48.326v-5.119h-0.627v-0.724h2.173v0.724h-0.627v5.119h0.627v0.725h-2.173v-0.725H60.424z"/>
	<path d="M68.633,42.483v0.724h-0.512l-2.019,5.892h-1.179l-2.086-5.892h-0.483v-0.724h2.366v0.724h-0.869l1.709,4.945h0.01
		l1.613-4.945h-0.869v-0.724H68.633z"/>
	<path d="M73.896,42.483v1.4h-0.724v-0.676h-2.608v2.077h2.849v0.725h-2.849v2.318h2.608V47.65h0.724v1.4h-4.877v-0.725h0.627
		v-5.119h-0.627v-0.724H73.896z"/>
	<path d="M77.855,42.483c1.304,0,2.028,0.802,2.028,1.96c0,0.927-0.521,1.652-1.41,1.806l1.468,2.077h0.473v0.725h-2.27v-0.725
		h0.637l-1.313-1.932h-1.4v1.932h0.627v0.725h-2.173v-0.725h0.627v-5.119h-0.627v-0.724H77.855z M76.068,45.67h1.642
		c0.725,0,1.227-0.435,1.227-1.227c0-0.753-0.454-1.236-1.179-1.236h-1.69V45.67z"/>
	<path d="M81.766,47.409v0.753c0.715,0.164,1.198,0.212,1.642,0.212c1.014,0,1.4-0.531,1.4-1.063c0-0.792-0.937-1.014-1.642-1.207
		c-1.072-0.28-2.077-0.87-2.077-1.98c0-1.246,1.014-1.739,2.27-1.739c0.724,0,1.4,0.097,2.221,0.338v1.401h-0.724v-0.783
		c-0.676-0.145-1.072-0.184-1.497-0.184c-0.966,0-1.304,0.435-1.304,0.947c0,0.744,0.957,1.053,1.69,1.227
		c1.063,0.242,2.028,0.753,2.028,1.884c0,1.304-1.014,1.932-2.366,1.932c-0.725,0-1.545-0.097-2.367-0.338v-1.4H81.766z"/>
	<path d="M87.028,48.326v-5.119H86.4v-0.724h2.173v0.724h-0.627v5.119h0.627v0.725H86.4v-0.725H87.028z"/>
	<path d="M91.924,42.483c2.154,0,2.782,1.4,2.782,3.235c0,1.864-0.627,3.333-2.782,3.333h-2.965v-0.725h0.627v-5.119h-0.627v-0.724
		H91.924z M91.924,48.326c1.478,0,1.816-1.207,1.816-2.608c0-1.4-0.338-2.511-1.816-2.511h-1.419v5.119H91.924z"/>
	<path d="M98.674,42.483l1.97,5.843h0.531v0.725h-2.27v-0.725h0.744l-0.425-1.275h-2.463l-0.454,1.275h0.714v0.725h-2.221v-0.725
		h0.608l1.806-5.119h-0.705v-0.724H98.674z M98.027,43.304l-1.072,3.072h2.105l-1.024-3.072H98.027z"/>
	<path d="M104.526,42.483c2.154,0,2.782,1.4,2.782,3.235c0,1.864-0.627,3.333-2.782,3.333h-2.965v-0.725h0.627v-5.119h-0.627v-0.724
		H104.526z M104.526,48.326c1.478,0,1.816-1.207,1.816-2.608c0-1.4-0.338-2.511-1.816-2.511h-1.419v5.119H104.526z"/>
	<path d="M112.667,42.483v1.4h-0.724v-0.676h-2.608v2.077h2.849v0.725h-2.849v2.318h2.608V47.65h0.724v1.4h-4.877v-0.725h0.627
		v-5.119h-0.627v-0.724H112.667z"/>
	<path d="M117.997,42.483c2.154,0,2.782,1.4,2.782,3.235c0,1.864-0.627,3.333-2.782,3.333h-2.965v-0.725h0.627v-5.119h-0.627v-0.724
		H117.997z M117.997,48.326c1.478,0,1.816-1.207,1.816-2.608c0-1.4-0.338-2.511-1.816-2.511h-1.419v5.119H117.997z"/>
	<path d="M121.646,45.718c0-1.835,0.551-3.332,2.801-3.332c2.241,0,2.801,1.497,2.801,3.332c0,1.864-0.56,3.429-2.801,3.429
		C122.197,49.147,121.646,47.583,121.646,45.718z M122.612,45.718c0,1.401,0.261,2.705,1.835,2.705c1.564,0,1.835-1.304,1.835-2.705
		c0-1.4-0.271-2.607-1.835-2.607C122.873,43.111,122.612,44.318,122.612,45.718z"/>
	<path d="M133.486,42.483l1.97,5.843h0.531v0.725h-2.27v-0.725h0.744l-0.425-1.275h-2.463l-0.454,1.275h0.714v0.725h-2.221v-0.725
		h0.608l1.806-5.119h-0.705v-0.724H133.486z M132.839,43.304l-1.072,3.072h2.105l-1.024-3.072H132.839z"/>
	<path d="M141.202,47.65v1.4h-4.829v-0.725H137v-5.119h-0.627v-0.724h2.173v0.724h-0.627v5.119h2.56V47.65H141.202z"/>
	<path d="M144.504,48.375c0.483,0,0.927-0.125,1.285-0.318v-1.565h-1.255v-0.725h2.173v2.859c-0.667,0.28-1.342,0.521-2.27,0.521
		c-2.154,0-2.801-1.565-2.801-3.429c0-1.835,0.551-3.332,2.801-3.332c0.744,0,1.449,0.097,2.27,0.338v1.353h-0.724v-0.783
		c-0.657-0.145-1.043-0.183-1.478-0.183c-1.516,0-1.903,1.207-1.903,2.607C142.601,47.167,143.084,48.375,144.504,48.375z"/>
	<path d="M151.254,42.483l1.97,5.843h0.531v0.725h-2.27v-0.725h0.744l-0.425-1.275h-2.463l-0.454,1.275h0.715v0.725h-2.221v-0.725
		h0.608l1.806-5.119h-0.705v-0.724H151.254z M150.607,43.304l-1.072,3.072h2.105l-1.024-3.072H150.607z"/>
	<path d="M157.473,42.483c1.304,0,2.028,0.802,2.028,1.96c0,0.927-0.521,1.652-1.41,1.806l1.468,2.077h0.473v0.725h-2.27v-0.725
		h0.637l-1.313-1.932h-1.4v1.932h0.627v0.725h-2.173v-0.725h0.627v-5.119h-0.627v-0.724H157.473z M155.686,45.67h1.642
		c0.725,0,1.227-0.435,1.227-1.227c0-0.753-0.454-1.236-1.179-1.236h-1.69V45.67z"/>
	<path d="M166.019,42.483v0.724h-0.512l-2.019,5.892h-1.179l-2.086-5.892h-0.483v-0.724h2.366v0.724h-0.869l1.709,4.945h0.01
		l1.613-4.945h-0.869v-0.724H166.019z"/>
	<path d="M171.282,42.483v1.4h-0.724v-0.676h-2.608v2.077h2.849v0.725h-2.849v2.318h2.608V47.65h0.724v1.4h-4.877v-0.725h0.627
		v-5.119h-0.627v-0.724H171.282z"/>
</g>
<g>
	<path fill="#FECD0F" d="M127.221,18.117h-6.241v3.301h5.341v2.44h-5.341v5.401h-2.761V15.656h9.002V18.117z"/>
	<path fill="#FECD0F" d="M135.94,24.678h0.04l3.201-9.022h3.641v13.603h-2.741v-8.642h-0.04l-3.241,8.642h-2l-3.161-8.642h-0.04
		v8.642h-2.681V15.656h3.661L135.94,24.678z"/>
	<path fill="#FECD0F" d="M150.54,15.457c1.621,0,3.041,0.2,4.901,0.76l-0.62,2.301c-2.141-0.5-3.001-0.6-4.061-0.6
		c-2.521,0-3.381,1.74-3.381,4.441c0,2.9,0.86,4.661,3.381,4.661c1.06,0,1.92-0.1,4.061-0.601l0.62,2.301
		c-1.861,0.54-3.281,0.74-4.901,0.74c-4.781,0-6.061-3.201-6.061-7.102C144.479,18.517,145.759,15.457,150.54,15.457z"/>
	<path fill="#FECD0F" d="M164.8,22.238c1.48,0.44,2.46,1.541,2.46,3.301c0,2.32-1.5,3.721-4.341,3.721h-6.162V15.656h5.761
		c2.841,0,4.341,1.28,4.341,3.481c0,1.46-0.8,2.601-2.061,3.061V22.238z M162.22,18.117h-2.701v2.941h2.701
		c1.14,0,1.74-0.42,1.74-1.48C163.96,18.577,163.36,18.117,162.22,18.117z M159.519,23.518v3.301h2.94
		c1.161,0,1.901-0.38,1.901-1.661c0-1.22-0.74-1.64-2-1.64H159.519z"/>
</g>
</svg>
